<svg width="118" height="39" viewBox="0 0 118 39" fill="none" xmlns="http://www.w3.org/2000/svg">
<path d="M15.0372 29.5481C19.447 29.5481 22.77 28.1097 25.3713 25.4072C28.0491 22.7346 28.8805 18.9931 28.8805 15.9662C28.8805 15.0263 28.8082 14.1645 28.6636 13.4408H15.0372V17.4766H24.7237C24.4345 19.7468 23.6725 21.4043 22.5206 22.5574C21.1085 23.9598 18.906 25.5123 15.0372 25.5123C9.07409 25.5123 4.41039 20.7197 4.41039 14.774C4.41039 8.82839 9.07409 4.03283 15.0372 4.03283C18.2518 4.03283 20.6052 5.29704 22.3372 6.91858L25.1936 4.07187C22.77 1.76868 19.5555 0 15.0372 0C6.86679 0 0 6.6273 0 14.774C0 22.9178 6.86679 29.5481 15.0372 29.5481ZM39.9079 29.5481C45.1822 29.5481 49.4836 25.5123 49.4836 20.032C49.4836 14.5218 45.1822 10.522 39.9079 10.522C34.6246 10.522 30.3233 14.5218 30.3233 20.032C30.3233 25.5123 34.6246 29.5481 39.9079 29.5481ZM39.9079 25.8005C37.0133 25.8005 34.5162 23.4223 34.5162 20.032C34.5162 16.6118 37.0133 14.2726 39.9079 14.2726C42.7966 14.2726 45.2906 16.6118 45.2906 20.032C45.2906 23.4223 42.7966 25.8005 39.9079 25.8005ZM60.7972 29.5481C66.0745 29.5481 70.3758 25.5123 70.3758 20.032C70.3758 14.5218 66.0745 10.522 60.7972 10.522C55.5169 10.522 51.2155 14.5218 51.2155 20.032C51.2155 25.5123 55.5169 29.5481 60.7972 29.5481ZM60.7972 25.8005C57.9055 25.8005 55.4085 23.4223 55.4085 20.032C55.4085 16.6118 57.9055 14.2726 60.7972 14.2726C63.6888 14.2726 66.1829 16.6118 66.1829 20.032C66.1829 23.4223 63.6888 25.8005 60.7972 25.8005ZM81.328 38.0882C86.2408 38.0882 90.4036 35.2085 90.4036 28.1788V11.0985H86.4245V12.648H86.28C85.3372 11.531 83.5299 10.522 81.2587 10.522C76.4844 10.522 72.1138 14.702 72.1138 20.0711C72.1138 25.4072 76.4844 29.5481 81.2587 29.5481C83.5299 29.5481 85.3372 28.5391 86.28 27.386H86.4245V28.7553C86.4245 32.3978 84.4727 34.3406 81.328 34.3406C78.7646 34.3406 77.1712 32.5059 76.5176 30.9504L72.8699 32.4669C73.9211 34.9923 76.7013 38.0882 81.328 38.0882ZM81.6141 25.8005C78.7255 25.8005 76.3007 23.3892 76.3007 20.0711C76.3007 16.7199 78.7255 14.2726 81.6141 14.2726C84.4727 14.2726 86.7137 16.7199 86.7137 20.0711C86.7137 23.3892 84.4727 25.8005 81.6141 25.8005ZM97.4851 1.00896H93.2922V28.9715H97.4851V1.00896ZM108.979 29.5481C113.35 29.5481 115.883 26.8846 116.932 25.3321L113.675 23.173C112.594 24.7525 111.112 25.8005 108.979 25.8005C106.847 25.8005 105.326 24.8276 104.353 22.9178L117.112 17.6538L116.679 16.5758C115.883 14.4497 113.459 10.522 108.51 10.522C103.594 10.522 99.5093 14.3807 99.5093 20.032C99.5093 25.3681 103.558 29.5481 108.979 29.5481ZM103.666 19.7468C103.558 16.0743 106.522 14.1975 108.654 14.1975C110.317 14.1975 111.727 15.0263 112.199 16.2154L103.666 19.7468Z" fill="#18214D"/>
</svg>
