<svg width="155" height="30" viewBox="0 0 155 30" fill="none" xmlns="http://www.w3.org/2000/svg">
<path d="M103.066 25.8934C105.118 25.9397 107.104 25.1653 108.593 23.7389L111.332 26.7251C109.523 28.6039 107.014 30 103.113 30C96.4253 30 92.1021 25.5185 92.1021 19.4599C92.075 18.0713 92.3251 16.6915 92.8377 15.4026C93.3502 14.1138 94.1146 12.9424 95.0852 11.9583C96.0559 10.9743 97.2129 10.1977 98.4873 9.67489C99.7616 9.15211 101.127 8.89386 102.503 8.91554C109.143 8.91554 112.907 14.0175 112.574 21.0931H96.8777C97.4325 24.0319 99.481 25.9064 103.053 25.9064L103.066 25.8934ZM107.833 17.7191C107.406 14.9742 105.784 12.9532 102.541 12.9532C99.5237 12.9532 97.4197 14.6768 96.8777 17.7191H107.837H107.833ZM0 25.665L12.0777 13.272H0.285939V9.38523H17.6812V13.3496L5.60354 25.7383H17.852V29.6294H0V25.665ZM31.4106 25.8891C33.4622 25.9354 35.4488 25.161 36.9373 23.7346L39.6772 26.7208C37.8676 28.5995 35.3582 29.9957 31.4575 29.9957C24.77 29.9957 20.4467 25.5142 20.4467 19.4556C20.4196 18.067 20.6698 16.6872 21.1823 15.3983C21.6949 14.1095 22.4593 12.9381 23.4299 11.954C24.4006 10.9699 25.5576 10.1934 26.8319 9.67058C28.1063 9.14781 29.4719 8.88955 30.8472 8.91124C37.4878 8.91124 41.252 14.0132 40.9191 21.0888H25.2309C25.7857 24.0276 27.8342 25.902 31.4063 25.902L31.4106 25.8891ZM36.1862 17.7147C35.7594 14.9698 34.1376 12.9489 30.8942 12.9489C27.8769 12.9489 25.7729 14.6725 25.2309 17.7147H36.1904H36.1862ZM67.012 19.4513C67.012 12.9876 71.8047 8.91985 77.0839 8.91985C78.3506 8.90283 79.6057 9.16596 80.761 9.69078C81.9163 10.2156 82.9438 10.9894 83.7714 11.9578V0.0129268H88.0392V29.5734H83.7714V26.7854C82.9597 27.7936 81.9336 28.6045 80.7693 29.158C79.605 29.7115 78.3323 29.9934 77.0455 29.9828C71.9242 29.9828 67.0163 25.8891 67.0163 19.4556L67.012 19.4513ZM84.0104 19.4125C83.9769 18.1487 83.575 16.9228 82.855 15.8884C82.1351 14.854 81.129 14.0568 79.9627 13.5966C78.7964 13.1365 77.5217 13.0338 76.2978 13.3013C75.074 13.5688 73.9555 14.1948 73.0821 15.1008C72.2088 16.0069 71.6194 17.1528 71.3877 18.3953C71.1561 19.6378 71.2923 20.9217 71.7795 22.0864C72.2667 23.2511 73.0832 24.2449 74.1269 24.9435C75.1706 25.6421 76.3951 26.0145 77.6472 26.0141C81.3175 26.0141 84.0062 23.058 84.0062 19.4125H84.0104ZM115.366 25.2729L119.232 23.2476C119.743 24.1677 120.494 24.9294 121.402 25.4504C122.311 25.9713 123.343 26.2318 124.388 26.2037C126.803 26.2037 128.058 24.954 128.058 23.532C128.058 21.9118 125.723 21.5498 123.184 21.0198C119.77 20.2873 116.215 19.154 116.215 14.9871C116.215 11.7854 119.232 8.82505 123.982 8.86814C127.725 8.86814 130.512 10.3677 132.091 12.7894L128.506 14.7716C128.011 14.031 127.336 13.4302 126.547 13.026C125.758 12.6218 124.879 12.4277 123.995 12.4619C121.699 12.4619 120.529 13.5952 120.529 14.8923C120.529 16.3487 122.382 16.7538 125.284 17.4045C128.587 18.137 132.326 19.2272 132.326 23.4372C132.326 26.2295 129.91 29.9957 124.191 29.9569C120.009 29.9569 117.064 28.2548 115.37 25.26L115.366 25.2729ZM143.921 20.576L140.537 24.3034V29.5605H136.269V0H140.537V19.3608L149.597 9.3206H154.795L146.943 17.9819L155 29.5648H150.169L143.925 20.576H143.921ZM54.1149 8.91554C49.0363 8.91554 44.7899 12.2336 44.7899 17.7492V29.5777H49.143V18.2965C49.143 14.9785 51.0336 12.9876 54.2643 12.9876C57.495 12.9876 59.0996 14.9698 59.0996 18.2965V29.5777H63.4271V17.7492C63.4271 12.2422 59.1594 8.91554 54.1021 8.91554" fill="#18214D"/>
</svg>
