<svg width="115" height="35" viewBox="0 0 115 35" fill="none" xmlns="http://www.w3.org/2000/svg">
<path d="M92.6169 28.6818H22.9678L28.543 34.257L92.6169 28.6818Z" fill="#18214D"/>
<path d="M29.4579 6.29749V7.12962C28.1265 6.29749 27.0447 5.79822 25.3805 5.79822C20.4709 5.79822 16.8096 10.2085 16.8096 15.7005C16.8096 21.1926 20.5541 25.6029 25.3805 25.6029C26.9615 25.6029 28.1265 25.1036 29.4579 24.2715V25.1036H33.7018V6.29749H29.4579ZM25.3805 21.1094C22.9673 21.1094 21.2198 18.7794 21.2198 15.7838C21.2198 12.7881 22.9673 10.4581 25.3805 10.4581C27.7937 10.4581 29.4579 12.7881 29.4579 15.7838C29.5411 18.6962 27.7937 21.1094 25.3805 21.1094Z" fill="#18214D"/>
<path d="M63.7408 6.29749V17.3648C63.7408 19.4451 62.3262 21.1926 60.2458 21.1926C58.1655 21.1926 56.7509 19.4451 56.7509 17.3648V6.29749H52.4238V17.3648C52.4238 21.9415 55.5027 25.6029 60.0794 25.6029C62.1597 25.6029 63.7408 24.4379 63.7408 24.4379V25.1036H67.9846V6.29749H63.7408Z" fill="#18214D"/>
<path d="M103.683 25.1868V14.0363C103.683 11.956 105.097 10.2085 107.178 10.2085C109.258 10.2085 110.673 11.956 110.673 14.0363V25.1036H115V14.0363C115 9.45958 111.921 5.79822 107.344 5.79822C105.264 5.79822 103.683 6.9632 103.683 6.9632V6.29749H99.439V25.1868H103.683Z" fill="#18214D"/>
<path d="M4.49349 25.1871V17.8644H7.65558L13.1476 25.1871H18.7229L12.0659 16.3666C14.1462 14.8687 15.4776 12.4556 15.4776 9.70954C15.4776 5.21605 11.8162 1.55469 7.32273 1.55469H0V25.1039H4.49349V25.1871ZM4.49349 6.04818H7.40594C9.40304 6.04818 11.0673 7.71243 11.0673 9.70954C11.0673 11.7066 9.40304 13.3709 7.40594 13.3709H4.49349V6.04818Z" fill="#18214D"/>
<path d="M79.6352 20.6936C79.2192 20.9433 78.8031 21.1929 78.2206 21.1929C77.5549 21.1929 76.2235 20.6936 76.2235 18.8629V10.7913H79.8849V6.29782H76.2235V1.55469H71.9797V6.29782H69.7329V10.7913H71.9797V18.9462C71.9797 23.19 75.1417 25.6864 78.387 25.6864C79.552 25.6864 81.2163 25.2703 82.5477 24.5214L79.6352 20.6936Z" fill="#18214D"/>
<path d="M44.3531 15.1182L51.759 6.2976H45.7677L40.6085 12.8714V0.0566406H36.1982V25.1869H40.6085V17.4481L46.9327 25.1869H52.924L44.3531 15.1182Z" fill="#18214D"/>
<path d="M89.5365 5.79822C84.5438 5.79822 81.0488 10.1253 81.0488 15.7005C81.0488 21.5254 85.5423 25.6029 89.9526 25.6029C92.1993 25.6029 95.1118 24.8539 97.525 21.359L93.7804 19.1955C90.8679 23.5225 85.9584 21.359 85.3759 17.0319H97.6914C98.7732 10.2917 94.3629 5.79822 89.5365 5.79822ZM93.2811 13.2874H85.5423C86.4577 8.87709 92.449 8.62745 93.2811 13.2874Z" fill="#18214D"/>
</svg>
