<svg width="136" height="45" viewBox="0 0 136 45" fill="none" xmlns="http://www.w3.org/2000/svg">
<path d="M71.6763 12.0246C71.6763 13.6119 70.4438 14.8899 68.9141 14.8899C67.3844 14.8899 66.1527 13.6119 66.1527 12.0246C66.1527 10.4374 67.3424 9.15933 68.9141 9.15933C70.4871 9.20338 71.6763 10.4819 71.6763 12.0246V12.0246ZM60.2896 17.8002V18.5057C60.2896 18.5057 58.973 16.7414 56.1687 16.7414C51.5381 16.7414 47.9262 20.4008 47.9262 25.4703C47.9262 30.4962 51.4957 34.1992 56.1687 34.1992C59.0154 34.1992 60.2896 32.3917 60.2896 32.3917V33.1409C60.2896 33.4937 60.5451 33.7574 60.8846 33.7574H64.3255V17.1809H60.8846C60.5451 17.1823 60.2896 17.4914 60.2896 17.8002V17.8002ZM60.2896 28.4241C59.6529 29.3943 58.3779 30.232 56.8487 30.232C54.1297 30.232 52.0475 28.4686 52.0475 25.4703C52.0475 22.4724 54.1297 20.709 56.8487 20.709C58.3359 20.709 59.6954 21.5907 60.2896 22.5165V28.4241ZM66.8751 17.1823H70.9535V33.7588H66.8751V17.1823V17.1823ZM127.801 16.741C124.997 16.741 123.679 18.5052 123.679 18.5052V9.20338H119.601V33.7588H123.042C123.382 33.7588 123.637 33.45 123.637 33.1413V32.3922C123.637 32.3922 124.954 34.1996 127.757 34.1996C132.389 34.1996 136 30.4975 136 25.4716C136 20.4457 132.389 16.741 127.801 16.741V16.741ZM127.121 30.1875C125.548 30.1875 124.317 29.3507 123.679 28.3801V22.4724C124.317 21.5907 125.676 20.665 127.121 20.665C129.84 20.665 131.922 22.4284 131.922 25.4262C131.922 28.4241 129.84 30.1875 127.121 30.1875ZM117.477 23.928V33.8028H113.398V24.4124C113.398 21.6797 112.548 20.5769 110.255 20.5769C109.023 20.5769 107.748 21.2384 106.94 22.2086V33.7592H102.862V17.1827H106.09C106.43 17.1827 106.685 17.4914 106.685 17.8002V18.5057C107.875 17.2267 109.446 16.7414 111.018 16.7414C112.803 16.7414 114.29 17.2712 115.48 18.3291C116.924 19.5635 117.477 21.1503 117.477 23.928V23.928ZM92.9614 16.741C90.158 16.741 88.8405 18.5052 88.8405 18.5052V9.20338H84.7621V33.7588H88.203C88.543 33.7588 88.7981 33.45 88.7981 33.1413V32.3922C88.7981 32.3922 90.1155 34.1996 92.9189 34.1996C97.5504 34.1996 101.161 30.4975 101.161 25.4716C101.204 20.4452 97.5928 16.741 92.9614 16.741V16.741ZM92.2814 30.1875C90.7097 30.1875 89.478 29.3507 88.8405 28.3801V22.4724C89.478 21.5907 90.8375 20.665 92.2814 20.665C95.0012 20.665 97.0826 22.4284 97.0826 25.4262C97.0826 28.4241 95.0012 30.1875 92.2814 30.1875ZM81.2355 16.741C82.4672 16.741 83.1047 16.962 83.1047 16.962V20.8852C83.1047 20.8852 79.7058 19.6948 77.5819 22.2082V33.8024H73.5027V17.1823H76.9444C77.2844 17.1823 77.5386 17.491 77.5386 17.7997V18.5052C78.3043 17.5791 79.9613 16.741 81.2355 16.741V16.741ZM38.8772 32.2596C38.665 31.7307 38.4523 31.1577 38.2401 30.6724C37.8997 29.8792 37.5598 29.1292 37.2631 28.4241L37.2206 28.3801C34.2886 21.7669 31.1452 15.0665 27.8308 8.45425L27.7035 8.18911C27.3549 7.50317 27.0152 6.8124 26.6844 6.117C26.2591 5.32294 25.8347 4.48616 25.1548 3.69211C23.7953 1.92872 21.8408 0.958496 19.7593 0.958496C17.6346 0.958496 15.723 1.92872 14.3215 3.60359C13.684 4.39677 13.2162 5.23443 12.7918 6.02848C12.4602 6.72345 12.1205 7.4142 11.7727 8.1006L11.645 8.36572C8.37342 14.978 5.18718 21.6788 2.2556 28.2915L2.21274 28.3792C1.91564 29.0856 1.57524 29.8347 1.23526 30.6275C1.02304 31.1128 0.810827 31.6417 0.598609 32.2147C0.0459937 33.8455 -0.124213 35.3887 0.0888535 36.9764C0.556157 40.283 2.68003 43.0593 5.61204 44.2947C6.71684 44.78 7.86409 45.0002 9.05336 45.0002C9.39334 45.0002 9.81778 44.9561 10.1582 44.9117C11.5605 44.7355 13.0049 44.251 14.4072 43.4134C16.1491 42.3991 17.8061 40.9449 19.6753 38.8287C21.5445 40.9449 23.244 42.3991 24.9434 43.4134C26.3462 44.251 27.7901 44.7355 29.192 44.9117C29.532 44.9566 29.9573 45.0002 30.2972 45.0002C31.4869 45.0002 32.6762 44.78 33.7381 44.2947C36.7126 43.0593 38.794 40.2389 39.2617 36.9764C39.5992 35.4336 39.4294 33.8913 38.8772 32.2596V32.2596ZM19.7165 34.5519C17.422 31.5541 15.9347 28.7328 15.4254 26.3529C15.2132 25.3386 15.1703 24.4569 15.2981 23.6633C15.3826 22.9578 15.6381 22.3403 15.978 21.8114C16.7853 20.6218 18.1448 19.8718 19.7169 19.8718C21.2894 19.8718 22.6913 20.5774 23.4562 21.8114C23.7962 22.3403 24.0508 22.9582 24.1365 23.6633C24.2635 24.4574 24.221 25.3826 24.0088 26.3529C23.4973 28.6888 22.0101 31.5105 19.7165 34.5519ZM36.6676 36.6241C36.3705 38.9164 34.8833 40.9009 32.8018 41.7825C31.7823 42.223 30.6771 42.3555 29.5731 42.223C28.5112 42.0904 27.4484 41.7376 26.3445 41.077C24.8148 40.1944 23.2856 38.8287 21.5008 36.8002C24.3046 33.2298 26.0041 29.9669 26.6416 27.058C26.9391 25.6909 26.982 24.4569 26.8538 23.3101C26.6844 22.2082 26.3016 21.1939 25.707 20.3122C24.3891 18.3278 22.1795 17.1823 19.716 17.1823C17.2526 17.1823 15.043 18.3727 13.726 20.3122C13.1313 21.1939 12.7485 22.2082 12.5787 23.3101C12.409 24.4569 12.451 25.735 12.7909 27.058C13.428 29.9669 15.1699 33.2734 17.9313 36.8443C16.1894 38.8724 14.6173 40.2394 13.0876 41.1211C11.9828 41.7826 10.9213 42.1353 9.85937 42.267C8.71255 42.3996 7.60732 42.223 6.63027 41.8266C4.54883 40.9449 3.06161 38.9604 2.7645 36.6681C2.63717 35.5662 2.72164 34.4643 3.14692 33.2298C3.27383 32.7885 3.48689 32.3481 3.69911 31.8192C3.99664 31.1137 4.33576 30.3637 4.67616 29.6145L4.71904 29.5269C7.65019 22.9578 10.794 16.257 14.0655 9.73275L14.1929 9.46763C14.5333 8.80701 14.8732 8.10148 15.2128 7.43999C15.5528 6.73445 15.9347 6.07296 16.4025 5.49954C17.2946 4.44257 18.4839 3.86871 19.8014 3.86871C21.1188 3.86871 22.3081 4.44257 23.2002 5.49954C23.668 6.07428 24.05 6.73577 24.3899 7.43999C24.7303 8.10148 25.0703 8.80701 25.4094 9.46763L25.5372 9.73275C28.7588 16.2841 31.8609 22.898 34.8417 29.5709V29.615C35.1821 30.3214 35.4792 31.1141 35.8191 31.8205C36.0314 32.3486 36.244 32.789 36.3713 33.2303C36.7105 34.3754 36.8378 35.4781 36.6676 36.6241V36.6241Z" fill="#18214D"/>
</svg>
